#!OML:ASF E:\emotionWalksFemale\Project 1\Capture day 1\Session 1\Female1.ASF
:FULLY-SPECIFIED
:DEGREES
2257
root 9.25551 15.5455 -7.80032 -180.967 -184.103 -176.747
lowerback 2.36121 -4.68682 -3.2316
upperback -4.6537 -6.38882 1.17491
thorax -5.66836 -2.99509 3.45598
lowerneck 0.869694 3.42532 1.96859
upperneck -2.24112 4.5475 -2.51634
head -0.726227 2.2812 -1.13667
rclavicle 3.70733e-014 -1.03368e-014
rhumerus -52.1919 1.2475 -78.434
rradius 31.9301
rwrist 17.3814
rhand -0.174357 -55.2116
rfingers 7.12502
rthumb 25.4234 996.464
lclavicle 3.70733e-014 -1.03368e-014
lhumerus -38.2462 12.8249 77.5977
lradius 34.2758
lwrist -14.4361
lhand -5.34604 -35.0649
lfingers 7.12502
lthumb 20.4609 -6.12295
rfemur -19.5233 26.1271 15.6134
rtibia 22.9926
rfoot -11.0651 -26.4315
rtoes 21.9714
lfemur 16.688 -7.46864 -31.7254
ltibia 18.3445
lfoot -7.12575 7.45502
ltoes -13.0791
2258
root 9.22847 15.5598 -7.68665 -180.916 -184.064 -176.724
lowerback 2.26008 -4.75957 -3.4133
upperback -4.78204 -6.4947 1.17614
thorax -5.71905 -3.03649 3.56043
lowerneck 0.750395 3.4725 2.04041
upperneck -1.84222 4.61662 -2.4641
head -0.580882 2.3139 -1.12339
rclavicle 1.2424e-014 7.95139e-016
rhumerus -52.3236 1.37301 -78.474
rradius 32.0162
rwrist 17.2177
rhand -0.0274011 -54.7144
rfingers 7.12502
rthumb 25.5641 996.981
lclavicle 1.2424e-014 7.95139e-016
lhumerus -38.8644 12.712 77.6523
lradius 34.3863
lwrist -14.1925
lhand -5.22211 -34.9539
lfingers 7.12502
lthumb 20.58 -6.02485
rfemur -19.198 25.9074 15.909
rtibia 23.1632
rfoot -10.7957 -25.8446
rtoes 23.5019
lfemur 16.9269 -7.43497 -31.5885
ltibia 18.4711
lfoot -6.07766 7.28394
ltoes -10.8405
2259
root 9.20024 15.574 -7.57158 -180.879 -184.058 -176.646
lowerback 2.07626 -4.82159 -3.72585
upperback -4.80863 -6.58745 1.1749
thorax -5.60168 -3.07216 3.71771
lowerneck 0.674055 3.53388 2.06283
upperneck -1.72486 4.7012 -2.33126
head -0.532452 2.35451 -1.08237
rclavicle -1.22253e-014 -3.65764e-014
rhumerus -52.3563 1.54387 -78.6324
rradius 32.2394
rwrist 16.7066
rhand -0.131737 -54.4558
rfingers 7.12502
rthumb 25.4642 997.225
lclavicle -1.22253e-014 -3.65764e-014
lhumerus -39.1601 12.7921 77.6938
lradius 34.2818
lwrist -14.1131
lhand -4.9385 -34.9314
lfingers 7.12502
lthumb 20.8525 -6.032
rfemur -18.803 25.5585 16.2121
rtibia 23.3171
rfoot -10.3 -25.4071
rtoes 23.6349
lfemur 17.1687 -7.32473 -31.4984
ltibia 18.6828
lfoot -5.05453 7.0923
ltoes -11.3885
2260
root 9.17532 15.5842 -7.4473 -180.906 -184.053 -176.545
lowerback 2.11747 -4.92684 -4.12082
upperback -5.07962 -6.75277 1.25661
thorax -5.84638 -3.12187 4.04798
lowerneck 1.03133 3.6499 2.0938
upperneck -1.55106 4.86564 -2.31089
head -0.534581 2.43849 -1.08742
rclavicle 3.18055e-014 -1.59028e-015
rhumerus -52.9969 2.17313 -78.8366
rradius 32.9367
rwrist 16.036
rhand -0.968281 -54.1491
rfingers 7.12502
rthumb 24.6626 997.42
lclavicle 3.18055e-014 -1.59028e-015
lhumerus -40.0631 12.9437 77.7009
lradius 34.2906
lwrist -14.0019
lhand -4.49258 -35.0471
lfingers 7.12502
lthumb 21.2809 -6.19546
rfemur -18.2785 25.2669 16.5208
rtibia 23.4746
rfoot -10.0284 -25.2082
rtoes 23.4458
lfemur 17.5928 -7.07117 -31.4513
ltibia 18.8733
lfoot -4.23348 6.88189
ltoes -14.7316
2261
root 9.14519 15.5955 -7.33915 -180.846 -184.069 -176.767
lowerback 2.13698 -5.17786 -4.27657
upperback -5.35769 -7.0879 1.58122
thorax -6.06407 -3.26059 4.50647
lowerneck 1.46638 3.88004 1.77694
upperneck -1.46169 5.17538 -2.29528
head -0.580592 2.59747 -1.04031
rclavicle -7.53394e-014 -1.82882e-014
rhumerus -53.5391 3.3325 -79.0451
rradius 34.1024
rwrist 15.7855
rhand -0.0514403 -54.9608
rfingers 7.12502
rthumb 25.5411 996.731
lclavicle -7.53394e-014 -1.82882e-014
lhumerus -41.053 13.5701 77.6947
lradius 34.4685
lwrist -13.9585
lhand -4.12726 -34.7707
lfingers 7.12502
lthumb 21.6317 -5.95906
rfemur -17.9718 25.1174 17.0918
rtibia 23.5198
rfoot -9.6456 -25.2546
rtoes 23.0561
lfemur 17.6599 -6.93981 -31.001
ltibia 19.1748
lfoot -3.27925 6.79989
ltoes -19.1365
2262
root 9.11481 15.6018 -7.22015 -180.823 -184.061 -176.916
lowerback 2.00699 -5.51304 -4.51976
upperback -5.55614 -7.52575 2.01705
thorax -6.0698 -3.45219 5.11027
lowerneck 1.66438 4.20983 0.980625
upperneck -1.28268 5.60493 -2.1229
head -0.574716 2.81567 -0.859908
rclavicle 4.53229e-014 1.19271e-014
rhumerus -53.7426 4.88183 -79.2807
rradius 34.5061
rwrist 14.2114
rhand -0.806795 -54.5988
rfingers 7.12502
rthumb 24.8174 996.992
lclavicle 4.53229e-014 1.19271e-014
lhumerus -42.0098 14.5386 77.8078
lradius 34.6586
lwrist -13.8618
lhand -4.01589 -34.6151
lfingers 7.12502
lthumb 21.7387 -5.81582
rfemur -17.5659 24.8536 17.63
rtibia 23.4921
rfoot -9.00847 -25.0245
rtoes 23.245
lfemur 17.6873 -6.80017 -30.6229
ltibia 19.5705
lfoot -2.35973 6.73182
ltoes -21.9004
2263
root 9.08485 15.6053 -7.10272 -180.808 -183.988 -177.08
lowerback 1.94314 -5.68651 -4.68755
upperback -5.70247 -7.75424 2.27358
thorax -6.10809 -3.54706 5.48117
lowerneck 1.76269 4.44285 0.512665
upperneck -1.16213 5.91075 -1.84505
head -0.569881 2.96848 -0.701221
rclavicle 4.51241e-014 -6.36111e-015
rhumerus -53.808 5.58141 -79.3213
rradius 34.857
rwrist 13.7301
rhand -0.09674 -55.0635
rfingers 7.12502
rthumb 25.4977 996.622
lclavicle 4.51241e-014 -6.36111e-015
lhumerus -42.7015 14.775 78.0472
lradius 34.7918
lwrist -13.6114
lhand -4.15973 -34.428
lfingers 7.12502
lthumb 21.6006 -5.61274
rfemur -17.0761 24.4202 18.2583
rtibia 23.3721
rfoot -8.18768 -24.6048
rtoes 23.3967
lfemur 17.6345 -6.61031 -30.2178
ltibia 20.0918
lfoot -1.5574 6.6243
ltoes -22.1452
